<svg xmlns="http://www.w3.org/2000/svg" viewBox="0 0 428.11 428.11"><defs><style>.cls-1{isolation:isolate;}.cls-2{fill:#005f86;}.cls-3{fill:#e1ebf4;}.cls-11,.cls-4{fill:#d4ac87;}.cls-5{fill:#2d4356;}.cls-6{fill:#667480;}.cls-7{fill:#c0c8cf;}.cls-8{fill:#96a1ab;}.cls-9{fill:#f0f5fa;}.cls-10{fill:#e0e4e7;}.cls-11{opacity:0.5;mix-blend-mode:multiply;}.cls-12{fill:#009ec9;}.cls-13{fill:#8f8abd;}.cls-14{fill:#f06c29;}</style></defs><title>1-de-3-bien</title><g class="cls-1"><g id="Capa_2" data-name="Capa 2"><g id="Capa_2-2" data-name="Capa 2"><path class="cls-2" d="M316.44,180.89A20.46,20.46,0,0,0,311,172.3a20.18,20.18,0,0,0,2.12-17.13C309.85,145,301,140.63,290.74,144l-50.46,16.39c-1-12.16-3.55-29.36-5.18-33.11-3.93-9-13.1-30-28.95-32.25a19.08,19.08,0,0,0-15,3.7,21.5,21.5,0,0,0-5,5.93c-5.19,8.93-1.9,17.7.75,24.72.53,1.45,1,2.78,1.46,4.07l2.45,7.54c.91,5.47-8.34,50-8.66,51.65-1.31,1.48-3.89,4.16-6.66,7l-.16-.49a13.4,13.4,0,0,0-17-8.36L129.83,200A13.41,13.41,0,0,0,121,216.75l27.15,83.57a13.42,13.42,0,0,0,17,8.38l28.53-9.27a13.5,13.5,0,0,0,9.39-14c.29-.06,3-1,5.52-1.9L213,282a20.78,20.78,0,0,1,4,1,28.46,28.46,0,0,0,9.23,1.73,8,8,0,0,0,2.05-.35l79.46-25.8c10.07-3.27,15.51-14.46,12.11-24.92a20.69,20.69,0,0,0-4.37-7.54A20.18,20.18,0,0,0,319,207a20.49,20.49,0,0,0-5.11-8.31,20.18,20.18,0,0,0,2.55-17.78m-120.74,104a6.25,6.25,0,0,1-4.23,7.76l-28.53,9.27a6.25,6.25,0,0,1-8-3.78l-27.16-83.57A6.27,6.27,0,0,1,132,206.8l28.53-9.27a6.26,6.26,0,0,1,8,3.77l27.15,83.57M308,194.71,288.61,201a3.57,3.57,0,0,0,2.21,6.79l16.45-5.34a13.27,13.27,0,0,1,4.94,6.75A12.88,12.88,0,0,1,309,222.54l-.25.06-11.89,3.86a3.58,3.58,0,0,0,2.21,6.8L309.18,230a13.41,13.41,0,0,1,3.85,5.88c2.19,6.75-1.17,13.86-7.52,15.93L226,277.59c-4.38.09-8.49-2.5-12.8-2.77a9.59,9.59,0,0,0-3.42.62c-2.31.75-8.21,3-8.66,3.12L178,207.21c3.23-3.22,10.91-11,11-11.73.32-4,11.13-49.12,8.71-56.54l-2.5-7.71c-2.47-7.61-7.13-15.6-2.85-23a12.51,12.51,0,0,1,6.22-5.64,13.53,13.53,0,0,1,6.59-.55c11.34,1.65,19.2,18.36,23.41,28.05,2.27,5.18,5.69,37.5,5,40l59.44-19.31c6.37-2.07,11.22-.14,13.41,6.6a13,13,0,0,1-2.2,12.29l-23.27,7.56a3.57,3.57,0,0,0,2.21,6.79l22.2-7.21a13.24,13.24,0,0,1,4.35,6.3A13,13,0,0,1,308,194.71"/><path class="cls-3" d="M278.59,181.72a3.58,3.58,0,0,0,4.5,2.29l22.2-7.21a13.24,13.24,0,0,1,4.35,6.3A13,13,0,0,1,308,194.71L288.61,201a3.57,3.57,0,0,0,2.21,6.79l16.45-5.34a13.27,13.27,0,0,1,4.94,6.75A12.88,12.88,0,0,1,309,222.54l-.25.06-11.89,3.86a3.58,3.58,0,0,0,2.21,6.8L309.18,230a13.41,13.41,0,0,1,3.85,5.88c2.19,6.75-1.17,13.86-7.52,15.93L226,277.59c-4.38.09-8.49-2.5-12.8-2.77a9.59,9.59,0,0,0-3.42.62c-2.31.75-8.21,3-8.66,3.12L178,207.21c3.23-3.22,10.91-11,11-11.73.32-4,11.13-49.12,8.71-56.54l-2.5-7.71c-2.47-7.61-7.13-15.6-2.85-23a12.51,12.51,0,0,1,6.22-5.64,13.53,13.53,0,0,1,6.59-.55c11.34,1.65,19.2,18.36,23.41,28.05,2.27,5.18,5.69,37.5,5,40l59.44-19.31c6.37-2.07,11.22-.14,13.41,6.6a13,13,0,0,1-2.2,12.29l-23.27,7.56a3.57,3.57,0,0,0-2.29,4.5"/><path class="cls-4" d="M160.57,197.53,132,206.8a6.27,6.27,0,0,0-4.25,7.75L155,298.12a6.25,6.25,0,0,0,8,3.78l28.53-9.27a6.25,6.25,0,0,0,4.23-7.76L168.55,201.3a6.26,6.26,0,0,0-8-3.77m13.32,89.55a10.71,10.71,0,1,1,6.88-13.5,10.72,10.72,0,0,1-6.88,13.5"/><path class="cls-5" d="M167.27,266.7a10.71,10.71,0,1,0,13.5,6.88A10.72,10.72,0,0,0,167.27,266.7Zm4.41,13.59a3.57,3.57,0,1,1,2.3-4.5A3.59,3.59,0,0,1,171.68,280.29Z"/><circle class="cls-3" cx="170.58" cy="276.89" r="3.57"/><polyline class="cls-6" points="306.33 157.31 306.34 157.32 306.33 157.31"/><polyline class="cls-6" points="280.86 177.22 280.86 177.22 280.86 177.22"/><polyline class="cls-6" points="280.82 177.24 280.82 177.24 280.82 177.24"/><path class="cls-6" d="M278.66,179.31a3.62,3.62,0,0,0-.17.56h0a3.58,3.58,0,0,1,.16-.56"/><path class="cls-7" d="M305.9,157.41a12.7,12.7,0,0,1-2.86,8.85l-23.26,7.56a3.56,3.56,0,0,0-2.29,4.5,3.65,3.65,0,0,0,1,1.55,3.62,3.62,0,0,1,.17-.56,3.54,3.54,0,0,1,2.16-2.07h0l0,0h0l23.27-7.56a12.82,12.82,0,0,0,2.63-10.61,11.54,11.54,0,0,0-.88-1.64"/><path class="cls-6" d="M309.17,181.86a12.21,12.21,0,0,1,.47,1.24h0a11.37,11.37,0,0,0-.47-1.24"/><polyline class="cls-6" points="288.59 201 288.58 201 288.59 201"/><path class="cls-6" d="M286.38,203.12a3.13,3.13,0,0,0-.16.52h0a3.13,3.13,0,0,1,.16-.52"/><path class="cls-7" d="M309,181.44a13,13,0,0,1-2.12,9.87l-19.35,6.28a3.59,3.59,0,0,0-2.29,4.5,3.52,3.52,0,0,0,1,1.55,3.13,3.13,0,0,1,.16-.52,3.56,3.56,0,0,1,2.2-2.12h0L308,194.71a13,13,0,0,0,1.69-11.61,12.21,12.21,0,0,0-.47-1.24,4.09,4.09,0,0,0-.2-.42"/><path class="cls-6" d="M312.19,209.15l0,0h0l0,0m-.33-.9q.18.45.33.9-.15-.45-.33-.9"/><polyline class="cls-6" points="296.87 226.47 296.86 226.47 296.87 226.47"/><path class="cls-6" d="M294.67,228.55a3.43,3.43,0,0,0-.17.57h0a3.43,3.43,0,0,1,.17-.57"/><path class="cls-7" d="M311.54,207.55a12.7,12.7,0,0,1-3.63,11.59l-.24.06-11.89,3.87a3.57,3.57,0,0,0-1.28,6.05,3.43,3.43,0,0,1,.17-.57,3.58,3.58,0,0,1,2.19-2.08h0l11.89-3.86.25-.06a12.88,12.88,0,0,0,3.19-13.35l0,0h0q-.15-.45-.33-.9a7.45,7.45,0,0,0-.32-.7"/><path class="cls-8" d="M198.94,102.47l-.41.14a12.51,12.51,0,0,0-6.22,5.64c-2,3.49-2.05,7.11-1.26,10.75-.79-3.65-.76-7.26,1.26-10.75a12.51,12.51,0,0,1,6.22-5.64l.41-.14a13.73,13.73,0,0,1,6.18-.41c11.34,1.65,19.2,18.36,23.41,28.05a6.43,6.43,0,0,1,.27.73c.18.53.36,1.21.54,2v0a15.73,15.73,0,0,0-.82-2.75c-4.21-9.69-12.07-26.4-23.41-28.05a13.73,13.73,0,0,0-6.18.41"/><path class="cls-9" d="M198.94,102.47l-.41.14a12.51,12.51,0,0,0-6.22,5.64c-2,3.49-2.05,7.1-1.26,10.75a41.74,41.74,0,0,0,1.59,5.27c-1.22-4.27-1.6-8.55.78-12.62a12.45,12.45,0,0,1,6.22-5.65l.4-.14a13.74,13.74,0,0,1,6.18-.4c11.1,1.61,18.84,17.61,23.12,27.38-.18-.79-.36-1.47-.54-2a6.43,6.43,0,0,0-.27-.73c-4.21-9.69-12.07-26.4-23.41-28.05a13.73,13.73,0,0,0-6.18.41"/><path class="cls-8" d="M306.35,157.37a13,13,0,0,1,.43,1.68h0a13,13,0,0,0-.44-1.68"/><path class="cls-9" d="M306.34,157.32v.05h0v-.05m-13.4-6.55-58.3,18.94a18.54,18.54,0,0,1,0,3.77l59.44-19.32c5.14-1.67,9.3-.73,11.85,3.25a12.76,12.76,0,0,0-.21-1.73,13,13,0,0,1,.64,1.64c-2.2-6.7-7-8.62-13.39-6.55"/><path class="cls-10" d="M305.69,155.68a12.76,12.76,0,0,1,.21,1.73,11.54,11.54,0,0,1,.88,1.64,13,13,0,0,0-.43-1.68h0v-.05h0a13,13,0,0,0-.64-1.64"/><path class="cls-6" d="M312.46,234.4c.21.47.4,1,.57,1.46h0c-.17-.51-.36-1-.57-1.46"/><path class="cls-7" d="M312.34,234.17a12.28,12.28,0,0,1-7.94,14.22l-79.46,25.8c-4.38.09-8.49-2.5-12.8-2.77a9.59,9.59,0,0,0-3.42.63c-2.19.71-7.6,2.77-8.55,3.08l-.11,0,1.1,3.4.12,0c.94-.31,6.35-2.37,8.54-3.08a9.59,9.59,0,0,1,3.42-.62c4.31.27,8.42,2.86,12.8,2.77l79.47-25.8c6.35-2.07,9.71-9.18,7.52-15.93-.17-.5-.36-1-.57-1.46l-.12-.23"/><path class="cls-4" d="M160.57,197.53,132,206.8a6.27,6.27,0,0,0-4.25,7.75l1.11,3.39a6.26,6.26,0,0,1,4.24-7.74l28.53-9.27a6.26,6.26,0,0,1,8,3.77l-1.1-3.4a6.26,6.26,0,0,0-8-3.77"/><path class="cls-11" d="M160.57,197.53,132,206.8a6.27,6.27,0,0,0-4.25,7.75l1.11,3.39a6.26,6.26,0,0,1,4.24-7.74l28.53-9.27a6.26,6.26,0,0,1,8,3.77l-1.1-3.4a6.26,6.26,0,0,0-8-3.77"/><path class="cls-12" d="M194.6,281.48a6.26,6.26,0,0,1-4.24,7.76l-28.53,9.27a6.27,6.27,0,0,1-8-3.79l1.11,3.4a6.25,6.25,0,0,0,8,3.78l28.53-9.27a6.25,6.25,0,0,0,4.23-7.76l-1.1-3.39"/><path class="cls-4" d="M194.6,281.48a6.26,6.26,0,0,1-4.24,7.76l-28.53,9.27a6.27,6.27,0,0,1-8-3.79l1.11,3.4a6.25,6.25,0,0,0,8,3.78l28.53-9.27a6.25,6.25,0,0,0,4.23-7.76l-1.1-3.39"/><path class="cls-11" d="M194.6,281.48a6.26,6.26,0,0,1-4.24,7.76l-28.53,9.27a6.27,6.27,0,0,1-8-3.79l1.11,3.4a6.25,6.25,0,0,0,8,3.78l28.53-9.27a6.25,6.25,0,0,0,4.23-7.76l-1.1-3.39"/><path class="cls-13" d="M214.06,64.53A4.05,4.05,0,0,1,210,60.48V30.25a4.06,4.06,0,0,1,8.11,0V60.48A4.05,4.05,0,0,1,214.06,64.53Z"/><path class="cls-13" d="M214.06,14.6a4.05,4.05,0,0,1-4.06-4V4.05a4.06,4.06,0,0,1,8.11,0v6.5A4.05,4.05,0,0,1,214.06,14.6Z"/><path class="cls-13" d="M214.06,401.91a4.05,4.05,0,0,1-4.06-4.05V367.63a4.06,4.06,0,0,1,8.11,0v30.23A4.05,4.05,0,0,1,214.06,401.91Z"/><path class="cls-13" d="M214.06,428.11a4.05,4.05,0,0,1-4.06-4.05v-6.5a4.06,4.06,0,0,1,8.11,0v6.5A4.05,4.05,0,0,1,214.06,428.11Z"/><path class="cls-13" d="M137.27,85.11a4,4,0,0,1-3.51-2L118.64,56.9a4.05,4.05,0,0,1,7-4L140.78,79a4,4,0,0,1-1.49,5.53A4,4,0,0,1,137.27,85.11Z"/><path class="cls-13" d="M112.31,41.87a4.08,4.08,0,0,1-3.52-2l-3.24-5.63a4,4,0,1,1,7-4.05l3.25,5.63a4.05,4.05,0,0,1-1.48,5.54A4.11,4.11,0,0,1,112.31,41.87Z"/><path class="cls-13" d="M306,377.29a4,4,0,0,1-3.51-2l-15.11-26.18a4,4,0,1,1,7-4.05l15.12,26.18a4,4,0,0,1-3.51,6.08Z"/><path class="cls-13" d="M319.06,400a4,4,0,0,1-3.51-2l-3.25-5.63a4.05,4.05,0,0,1,7-4.05l3.25,5.63a4,4,0,0,1-1.49,5.53A4,4,0,0,1,319.06,400Z"/><path class="cls-13" d="M81.05,141.32a4.11,4.11,0,0,1-2-.54L52.85,125.66a4.05,4.05,0,0,1,4-7l26.18,15.12a4.05,4.05,0,0,1-2,7.56Z"/><path class="cls-13" d="M37.81,116.36a4,4,0,0,1-2-.55l-5.63-3.25a4,4,0,0,1,4.05-7l5.63,3.25a4,4,0,0,1-2,7.56Z"/><path class="cls-13" d="M373.23,310a4,4,0,0,1-2-.54L345,294.35a4,4,0,0,1,4.05-7l26.18,15.11a4,4,0,0,1-2,7.56Z"/><path class="cls-13" d="M395.92,323.11a4,4,0,0,1-2-.54l-5.63-3.25a4.05,4.05,0,0,1,4.05-7l5.63,3.25a4.05,4.05,0,0,1-2,7.56Z"/><path class="cls-13" d="M60.48,218.11H30.25a4.06,4.06,0,0,1,0-8.11H60.48a4.06,4.06,0,0,1,0,8.11Z"/><path class="cls-13" d="M10.55,218.11H4.05a4.06,4.06,0,0,1,0-8.11h6.5a4.06,4.06,0,0,1,0,8.11Z"/><path class="cls-13" d="M397.86,218.11H367.63a4.06,4.06,0,0,1,0-8.11h30.23a4.06,4.06,0,0,1,0,8.11Z"/><path class="cls-13" d="M424.06,218.11h-6.5a4.06,4.06,0,0,1,0-8.11h6.5a4.06,4.06,0,0,1,0,8.11Z"/><path class="cls-13" d="M54.88,310a4.05,4.05,0,0,1-2-7.56L79,287.34a4,4,0,0,1,4,7L56.9,309.47A4,4,0,0,1,54.88,310Z"/><path class="cls-13" d="M32.19,323.11a4.05,4.05,0,0,1-2-7.56l5.63-3.25a4.05,4.05,0,1,1,4.05,7l-5.63,3.25A4,4,0,0,1,32.19,323.11Z"/><path class="cls-13" d="M347.06,141.32a4.05,4.05,0,0,1-2-7.56l26.18-15.12a4.05,4.05,0,1,1,4.05,7l-26.18,15.12A4.08,4.08,0,0,1,347.06,141.32Z"/><path class="cls-13" d="M390.3,116.36a4.05,4.05,0,0,1-2-7.56l5.63-3.25a4,4,0,1,1,4.05,7l-5.63,3.25A4,4,0,0,1,390.3,116.36Z"/><path d="M122.15,377.29a4.05,4.05,0,0,1-3.51-6.08L133.76,345a4.05,4.05,0,0,1,7,4.05l-15.12,26.18A4,4,0,0,1,122.15,377.29Z"/><path d="M109.05,400a4.06,4.06,0,0,1-3.5-6.08l3.24-5.63a4.05,4.05,0,0,1,7,4.05L112.56,398A4,4,0,0,1,109.05,400Z"/><path d="M290.84,85.11a4.06,4.06,0,0,1-3.5-6.08l15.11-26.18a4.05,4.05,0,0,1,7,4L294.35,83.08A4,4,0,0,1,290.84,85.11Z"/><path d="M315.8,41.87a4.14,4.14,0,0,1-2-.54,4.05,4.05,0,0,1-1.48-5.54l3.25-5.63a4.05,4.05,0,0,1,7,4.05l-3.25,5.63A4.06,4.06,0,0,1,315.8,41.87Z"/><path class="cls-13" d="M122.15,377.29a4.05,4.05,0,0,1-3.51-6.08L133.76,345a4.05,4.05,0,0,1,7,4.05l-15.12,26.18A4,4,0,0,1,122.15,377.29Z"/><path class="cls-13" d="M109.05,400a4.06,4.06,0,0,1-3.5-6.08l3.24-5.63a4.05,4.05,0,0,1,7,4.05L112.56,398A4,4,0,0,1,109.05,400Z"/><path class="cls-13" d="M290.84,85.11a4.06,4.06,0,0,1-3.5-6.08l15.11-26.18a4.05,4.05,0,0,1,7,4L294.35,83.08A4,4,0,0,1,290.84,85.11Z"/><path class="cls-13" d="M315.8,41.87a4.14,4.14,0,0,1-2-.54,4.05,4.05,0,0,1-1.48-5.54l3.25-5.63a4.05,4.05,0,0,1,7,4.05l-3.25,5.63A4.06,4.06,0,0,1,315.8,41.87Z"/><path class="cls-14" d="M253.81,69.77a4.21,4.21,0,0,1-1.05-.14,4.05,4.05,0,0,1-2.87-5l5.23-19.49a4,4,0,1,1,7.82,2.09l-5.22,19.5A4.06,4.06,0,0,1,253.81,69.77Z"/><path class="cls-14" d="M169.09,386a3.91,3.91,0,0,1-1.06-.14,4,4,0,0,1-2.86-5l5.22-19.5a4.05,4.05,0,0,1,7.83,2.1L173,383A4.06,4.06,0,0,1,169.09,386Z"/><path class="cls-14" d="M174.3,69.77a4.07,4.07,0,0,1-3.91-3l-5.22-19.5A4.05,4.05,0,1,1,173,45.17l5.22,19.49a4.05,4.05,0,0,1-2.86,5A4.35,4.35,0,0,1,174.3,69.77Z"/><path class="cls-14" d="M259,386a4.06,4.06,0,0,1-3.92-3l-5.22-19.5a4.05,4.05,0,0,1,7.83-2.1l5.22,19.5a4,4,0,0,1-2.86,5A3.84,3.84,0,0,1,259,386Z"/><path class="cls-14" d="M105.46,109.51a4,4,0,0,1-2.86-1.18L88.32,94.05a4.05,4.05,0,0,1,5.73-5.73l14.28,14.28a4,4,0,0,1-2.87,6.91Z"/><path class="cls-14" d="M336.92,341a4,4,0,0,1-2.86-1.19l-14.27-14.27a4.05,4.05,0,1,1,5.73-5.73l14.27,14.27a4.06,4.06,0,0,1-2.87,6.92Z"/><path class="cls-14" d="M65.71,178.36a3.84,3.84,0,0,1-1-.14L45.17,173a4.05,4.05,0,1,1,2.09-7.83l19.5,5.22a4.05,4.05,0,0,1-1.05,8Z"/><path class="cls-14" d="M381.9,263.08a3.79,3.79,0,0,1-1-.14l-19.5-5.22a4.05,4.05,0,0,1,2.1-7.83l19.5,5.23a4,4,0,0,1-1.05,8Z"/><path class="cls-14" d="M46.21,263.08a4,4,0,0,1-1-8l19.49-5.23a4.05,4.05,0,1,1,2.1,7.83l-19.5,5.22A3.79,3.79,0,0,1,46.21,263.08Z"/><path class="cls-14" d="M362.4,178.36a4.05,4.05,0,0,1-1-8l19.5-5.22A4.05,4.05,0,0,1,383,173l-19.5,5.22A3.84,3.84,0,0,1,362.4,178.36Z"/><path class="cls-14" d="M91.19,341a4.06,4.06,0,0,1-2.87-6.92l14.28-14.27a4.05,4.05,0,1,1,5.73,5.73L94.05,339.79A4,4,0,0,1,91.19,341Z"/><path class="cls-14" d="M322.65,109.51a4,4,0,0,1-2.86-6.91l14.27-14.28a4.05,4.05,0,0,1,5.73,5.73l-14.27,14.28A4.06,4.06,0,0,1,322.65,109.51Z"/></g></g></g></svg>