<svg xmlns="http://www.w3.org/2000/svg" viewBox="0 0 568.26 536.76"><defs><style>.cls-1{fill:#005f86;}.cls-2{fill:#e1ebf4;}.cls-3{fill:#65c9d8;}.cls-4{fill:#2d4356;}.cls-5{fill:#667480;}.cls-6{fill:#c0c8cf;}.cls-7{fill:#96a1ab;}.cls-8{fill:#f0f5fa;}.cls-9{fill:#e0e4e7;}.cls-10{fill:#009ec9;}.cls-11{fill:#f06c29;}</style></defs><title>2-de-3-bien</title><g id="Capa_2" data-name="Capa 2"><g id="Capa_2-2" data-name="Capa 2"><path class="cls-1" d="M394.21,237.36a20.44,20.44,0,0,0-5.4-8.59,20.18,20.18,0,0,0,2.11-17.13c-3.3-10.16-12.1-14.54-22.41-11.19l-50.45,16.39c-1-12.15-3.55-29.36-5.18-33.11-3.93-9-13.1-30-29-32.25a19.07,19.07,0,0,0-15,3.7,21.5,21.5,0,0,0-5,5.93c-5.19,8.93-1.91,17.7.75,24.72.53,1.45,1,2.78,1.45,4.08l2.45,7.54c.92,5.46-8.34,50-8.65,51.64-1.31,1.48-3.89,4.16-6.66,7l-.16-.49a13.41,13.41,0,0,0-17-8.36l-28.53,9.27a13.41,13.41,0,0,0-8.83,16.75l27.15,83.56a13.42,13.42,0,0,0,17,8.38l28.53-9.27a13.5,13.5,0,0,0,9.39-14c.29-.06,3-1,5.52-1.9l4.43-1.56a20.89,20.89,0,0,1,3.95,1A28.53,28.53,0,0,0,304,341.2a8,8,0,0,0,2-.35l79.46-25.8c10.07-3.27,15.5-14.46,12.11-24.92a20.69,20.69,0,0,0-4.37-7.54,20.17,20.17,0,0,0,3.55-19.14,20.49,20.49,0,0,0-5.11-8.31,20.18,20.18,0,0,0,2.54-17.78m-120.73,104a6.25,6.25,0,0,1-4.24,7.76l-28.53,9.27a6.24,6.24,0,0,1-8-3.78L205.57,271a6.27,6.27,0,0,1,4.25-7.75L238.34,254a6.27,6.27,0,0,1,8,3.78l27.15,83.56m112.25-90.16-19.34,6.28a3.57,3.57,0,1,0,2.2,6.79l16.46-5.34a13.24,13.24,0,0,1,4.93,6.75A12.84,12.84,0,0,1,386.79,279c-.08,0-.16,0-.24.06l-11.89,3.86a3.58,3.58,0,0,0,2.21,6.8L387,286.45a13.31,13.31,0,0,1,3.84,5.88c2.19,6.75-1.16,13.86-7.52,15.93l-79.46,25.8c-4.38.09-8.49-2.5-12.8-2.77a9.59,9.59,0,0,0-3.42.62c-2.31.75-8.21,3-8.66,3.12l-23.18-71.34c3.23-3.23,10.91-11,11-11.73.33-4,11.13-49.13,8.72-56.55l-2.5-7.71c-2.47-7.61-7.13-15.6-2.85-23a12.47,12.47,0,0,1,6.22-5.64,13.37,13.37,0,0,1,6.58-.54c11.35,1.64,19.2,18.35,23.42,28,2.27,5.18,5.69,37.5,5,40l59.44-19.31c6.37-2.07,11.22-.14,13.41,6.61a12.94,12.94,0,0,1-2.2,12.28l-23.27,7.56a3.57,3.57,0,0,0,2.21,6.79l22.19-7.21a13.18,13.18,0,0,1,4.36,6.3,13,13,0,0,1-1.69,11.61"/><path class="cls-2" d="M356.37,238.19a3.58,3.58,0,0,0,4.5,2.29l22.19-7.21a13.18,13.18,0,0,1,4.36,6.3,13,13,0,0,1-1.69,11.61l-19.34,6.28a3.57,3.57,0,1,0,2.2,6.79l16.46-5.34a13.24,13.24,0,0,1,4.93,6.75A12.84,12.84,0,0,1,386.79,279c-.08,0-.16,0-.24.06l-11.89,3.86a3.58,3.58,0,0,0,2.21,6.8L387,286.45a13.31,13.31,0,0,1,3.84,5.88c2.19,6.75-1.16,13.86-7.52,15.93l-79.46,25.8c-4.38.09-8.49-2.5-12.8-2.77a9.59,9.59,0,0,0-3.42.62c-2.31.75-8.21,3-8.66,3.12l-23.18-71.34c3.23-3.23,10.91-11,11-11.73.33-4,11.13-49.13,8.72-56.55l-2.5-7.71c-2.47-7.61-7.13-15.6-2.85-23a12.47,12.47,0,0,1,6.22-5.64,13.37,13.37,0,0,1,6.58-.54c11.35,1.64,19.2,18.35,23.42,28,2.27,5.18,5.69,37.5,5,40l59.44-19.31c6.37-2.07,11.22-.14,13.41,6.61a12.94,12.94,0,0,1-2.2,12.28l-23.27,7.56a3.56,3.56,0,0,0-2.29,4.5"/><path class="cls-3" d="M238.34,254l-28.52,9.27a6.27,6.27,0,0,0-4.25,7.75l27.16,83.57a6.24,6.24,0,0,0,8,3.78l28.53-9.27a6.25,6.25,0,0,0,4.24-7.76l-27.15-83.56a6.27,6.27,0,0,0-8-3.78m13.33,89.55a10.71,10.71,0,1,1,6.88-13.5,10.72,10.72,0,0,1-6.88,13.5"/><path class="cls-4" d="M245.05,323.17a10.71,10.71,0,1,0,13.5,6.88A10.72,10.72,0,0,0,245.05,323.17Zm4.41,13.59a3.58,3.58,0,1,1,2.29-4.5A3.59,3.59,0,0,1,249.46,336.76Z"/><circle class="cls-2" cx="248.36" cy="333.36" r="3.57"/><polyline class="cls-5" points="384.11 213.79 384.11 213.79 384.11 213.79"/><polyline class="cls-5" points="358.64 233.69 358.64 233.69 358.64 233.69"/><polyline class="cls-5" points="358.6 233.71 358.59 233.71 358.6 233.71"/><path class="cls-5" d="M356.44,235.78a3.62,3.62,0,0,0-.17.56h0a3.62,3.62,0,0,1,.17-.56"/><path class="cls-6" d="M383.68,213.88a12.75,12.75,0,0,1-2.86,8.85l-23.26,7.56a3.57,3.57,0,0,0-1.29,6.05,3.62,3.62,0,0,1,.17-.56,3.53,3.53,0,0,1,2.15-2.07h0l0,0h0l23.27-7.56a12.82,12.82,0,0,0,2.63-10.61,12.65,12.65,0,0,0-.88-1.64"/><path class="cls-5" d="M387,238.33c.17.4.33.81.47,1.24h0a11.37,11.37,0,0,0-.47-1.24"/><polyline class="cls-5" points="366.37 257.47 366.36 257.47 366.37 257.47"/><path class="cls-5" d="M364.16,259.59a3.13,3.13,0,0,0-.16.52h0a3.13,3.13,0,0,1,.16-.52"/><path class="cls-6" d="M386.75,237.91a12.92,12.92,0,0,1-2.13,9.87l-19.34,6.29a3.57,3.57,0,0,0-2.29,4.5,3.49,3.49,0,0,0,1,1.54,3.13,3.13,0,0,1,.16-.52,3.54,3.54,0,0,1,2.2-2.12h0l19.34-6.28a13,13,0,0,0,1.69-11.61c-.14-.43-.3-.84-.47-1.24-.07-.15-.13-.29-.2-.42"/><path class="cls-5" d="M390,265.63v0h0v0m-.33-.91c.12.3.23.6.33.91-.1-.31-.21-.61-.33-.91"/><polyline class="cls-5" points="374.64 282.94 374.64 282.94 374.64 282.94"/><path class="cls-5" d="M372.45,285a3.43,3.43,0,0,0-.17.57h0a3.43,3.43,0,0,1,.17-.57"/><path class="cls-6" d="M389.32,264a12.73,12.73,0,0,1-3.63,11.6,1.68,1.68,0,0,0-.24.06l-11.89,3.86a3.58,3.58,0,0,0-2.29,4.5,3.49,3.49,0,0,0,1,1.55,3.43,3.43,0,0,1,.17-.57,3.56,3.56,0,0,1,2.19-2.08h0l11.89-3.86c.08,0,.16,0,.24-.06A12.84,12.84,0,0,0,390,265.66v0h0c-.1-.31-.21-.61-.33-.91s-.21-.47-.32-.7"/><path class="cls-7" d="M276.72,158.94l-.41.14a12.47,12.47,0,0,0-6.22,5.64c-2,3.49-2,7.11-1.26,10.76-.79-3.65-.76-7.27,1.26-10.76a12.47,12.47,0,0,1,6.22-5.64l.41-.14a13.56,13.56,0,0,1,6.17-.4c11.35,1.64,19.2,18.35,23.42,28a7.24,7.24,0,0,1,.27.73c.18.53.36,1.21.54,2v0a15.62,15.62,0,0,0-.82-2.76c-4.22-9.69-12.07-26.4-23.42-28a13.56,13.56,0,0,0-6.17.4"/><path class="cls-8" d="M276.72,158.94l-.41.14a12.47,12.47,0,0,0-6.22,5.64c-2,3.49-2,7.11-1.26,10.76a41.09,41.09,0,0,0,1.59,5.27c-1.23-4.28-1.6-8.55.77-12.63a12.57,12.57,0,0,1,6.22-5.65l.41-.14a13.87,13.87,0,0,1,6.18-.4c11.1,1.61,18.84,17.61,23.12,27.38-.18-.79-.36-1.47-.54-2a7.24,7.24,0,0,0-.27-.73c-4.22-9.69-12.07-26.4-23.42-28a13.56,13.56,0,0,0-6.17.4"/><path class="cls-7" d="M384.13,213.85a14.12,14.12,0,0,1,.43,1.67h0a12.55,12.55,0,0,0-.43-1.68"/><path class="cls-8" d="M384.11,213.79l0,.06h0l0-.06m-13.39-6.55-58.3,18.94a18.54,18.54,0,0,1,0,3.77l59.43-19.31c5.15-1.68,9.3-.74,11.86,3.24a13,13,0,0,0-.21-1.73,14.76,14.76,0,0,1,.64,1.64c-2.2-6.7-7-8.61-13.39-6.55"/><path class="cls-9" d="M383.47,212.15a13,13,0,0,1,.21,1.73,12.65,12.65,0,0,1,.88,1.64,14.12,14.12,0,0,0-.43-1.67h0l0-.06h0a14.76,14.76,0,0,0-.64-1.64"/><path class="cls-5" d="M390.23,290.87a12.27,12.27,0,0,1,.57,1.46h0a11.64,11.64,0,0,0-.57-1.46"/><path class="cls-6" d="M390.12,290.64a12.28,12.28,0,0,1-7.94,14.22l-79.46,25.8c-4.39.09-8.49-2.5-12.81-2.77a9.63,9.63,0,0,0-3.42.63c-2.19.71-7.59,2.77-8.54,3.08l-.11,0,1.1,3.4.11,0c.95-.31,6.36-2.37,8.55-3.08a9.59,9.59,0,0,1,3.42-.62c4.31.27,8.42,2.86,12.8,2.77l79.46-25.8c6.36-2.07,9.71-9.18,7.52-15.93a12.27,12.27,0,0,0-.57-1.46,2.4,2.4,0,0,0-.11-.23"/><path class="cls-10" d="M238.34,254l-28.52,9.27a6.27,6.27,0,0,0-4.25,7.75l1.11,3.39a6.25,6.25,0,0,1,4.24-7.74l28.53-9.27a6.26,6.26,0,0,1,8,3.77l-1.1-3.39a6.27,6.27,0,0,0-8-3.78"/><path class="cls-10" d="M272.38,338a6.27,6.27,0,0,1-4.24,7.76L239.61,355a6.27,6.27,0,0,1-8-3.79l1.11,3.4a6.24,6.24,0,0,0,8,3.78l28.53-9.27a6.25,6.25,0,0,0,4.24-7.76l-1.1-3.39"/><path class="cls-11" d="M135,483.17c-6.7-1.78-7.63-2.64-9-13.35a1.47,1.47,0,0,0-1.45-1.27,1.45,1.45,0,0,0-1.45,1.27c-1.36,10.71-2.3,11.56-9,13.35a1.46,1.46,0,0,0,0,2.83c6.7,1.78,7.64,2.64,9,13.34a1.46,1.46,0,0,0,1.45,1.28,1.47,1.47,0,0,0,1.45-1.28c1.36-10.7,2.29-11.56,9-13.34a1.46,1.46,0,0,0,0-2.83Z"/><path class="cls-3" d="M57.7,519.31c-6.7-1.79-7.64-2.64-9-13.35a1.46,1.46,0,0,0-2.9,0c-1.36,10.71-2.29,11.56-9,13.35a1.47,1.47,0,0,0,0,2.83c6.71,1.78,7.64,2.64,9,13.34a1.46,1.46,0,0,0,2.9,0c1.36-10.7,2.3-11.56,9-13.34a1.47,1.47,0,0,0,0-2.83Z"/><path class="cls-3" d="M94.87,444.4c-11.21-3-12.78-4.42-15.05-22.33a2.45,2.45,0,0,0-4.86,0c-2.27,17.9-3.83,19.34-15,22.32a2.45,2.45,0,0,0,0,4.73c11.22,3,12.78,4.42,15,22.33a2.45,2.45,0,0,0,4.86,0c2.27-17.91,3.84-19.34,15.05-22.33a2.45,2.45,0,0,0,0-4.73Z"/><path class="cls-3" d="M411.54,17.57c-7.47-2-8.52-3-10-14.89a1.63,1.63,0,0,0-3.24,0c-1.52,11.94-2.56,12.9-10,14.89a1.63,1.63,0,0,0,0,3.15c7.48,2,8.52,3,10,14.89a1.63,1.63,0,0,0,3.24,0c1.51-11.94,2.56-12.9,10-14.89a1.63,1.63,0,0,0,0-3.15Z"/><path class="cls-3" d="M560.59,333.14c-7.47-2-8.51-2.95-10-14.89a1.63,1.63,0,0,0-3.24,0c-1.51,11.94-2.56,12.9-10,14.89a1.63,1.63,0,0,0,0,3.15c7.47,2,8.52,2.95,10,14.89a1.63,1.63,0,0,0,3.24,0c1.52-11.94,2.56-12.9,10-14.89a1.63,1.63,0,0,0,0-3.15Z"/><path class="cls-11" d="M566.76,218.3c-11.63-3.1-13.45-4.77-15.81-23.34a2,2,0,0,0-4,0c-2.37,18.57-4.19,20.24-15.82,23.34a2,2,0,0,0,0,3.9c11.63,3.1,13.45,4.77,15.82,23.34a2,2,0,0,0,4,0c2.36-18.57,4.18-20.24,15.81-23.34a2,2,0,0,0,0-3.9Z"/><path class="cls-11" d="M23.91,271.57c-7.48-2-8.66-3.06-10.18-15a1.3,1.3,0,0,0-2.58,0c-1.52,12-2.7,13-10.18,15a1.3,1.3,0,0,0,0,2.52c7.48,2,8.66,3.07,10.18,15a1.3,1.3,0,0,0,2.58,0c1.52-11.95,2.7-13,10.18-15a1.31,1.31,0,0,0,0-2.52Z"/><path class="cls-11" d="M118.89,69.66c-14.07-3.75-16.28-5.76-19.13-28.24a2.45,2.45,0,0,0-4.86,0C92.05,63.9,89.84,65.91,75.77,69.66a2.44,2.44,0,0,0,0,4.72c14.07,3.75,16.28,5.77,19.13,28.24a2.45,2.45,0,0,0,4.86,0c2.85-22.47,5.06-24.49,19.13-28.24a2.44,2.44,0,0,0,0-4.72Z"/><path class="cls-11" d="M517.79,436.86c-14.06-3.75-16.27-5.77-19.13-28.24a2.45,2.45,0,0,0-4.85,0c-2.86,22.47-5.07,24.49-19.13,28.24a2.44,2.44,0,0,0,0,4.72c14.06,3.75,16.27,5.77,19.13,28.24a2.45,2.45,0,0,0,4.85,0c2.86-22.47,5.07-24.49,19.13-28.24a2.44,2.44,0,0,0,0-4.72Z"/><path class="cls-3" d="M516.88,41.65C496.33,36.17,493.82,32.48,490,2.14a2.44,2.44,0,0,0-4.85,0c-3.86,30.34-6.38,34-26.93,39.51a2.44,2.44,0,0,0,0,4.72c20.55,5.47,23.07,9.17,26.93,39.51a2.44,2.44,0,0,0,4.85,0c3.86-30.34,6.37-34,26.92-39.51a2.44,2.44,0,0,0,0-4.72Z"/><path class="cls-3" d="M60.36,204.87c-15.22-4.05-17.08-6.79-19.94-29.26a1.81,1.81,0,0,0-3.59,0C34,198.08,32.1,200.82,16.89,204.87a1.81,1.81,0,0,0,0,3.5c15.21,4,17.08,6.79,19.94,29.26a1.81,1.81,0,0,0,3.59,0c2.86-22.47,4.72-25.21,19.94-29.26a1.81,1.81,0,0,0,0-3.5Z"/><path class="cls-3" d="M291.83,121a4.05,4.05,0,0,1-4.05-4V86.72a4.06,4.06,0,0,1,8.11,0V117A4.05,4.05,0,0,1,291.83,121Z"/><path class="cls-3" d="M291.83,71.07a4.05,4.05,0,0,1-4.05-4v-6.5a4.06,4.06,0,0,1,8.11,0V67A4.05,4.05,0,0,1,291.83,71.07Z"/><path class="cls-3" d="M291.83,458.39a4.06,4.06,0,0,1-4.05-4.06V424.1a4.06,4.06,0,0,1,8.11,0v30.23A4.06,4.06,0,0,1,291.83,458.39Z"/><path class="cls-3" d="M291.83,484.58a4.05,4.05,0,0,1-4.05-4.05V474a4.06,4.06,0,0,1,8.11,0v6.5A4.05,4.05,0,0,1,291.83,484.58Z"/><path class="cls-3" d="M215.05,141.58a4,4,0,0,1-3.51-2l-15.12-26.18a4.05,4.05,0,0,1,7-4.05l15.11,26.18a4.06,4.06,0,0,1-3.5,6.08Z"/><path class="cls-3" d="M190.09,98.34a4.06,4.06,0,0,1-3.52-2l-3.25-5.63a4.05,4.05,0,0,1,7-4.05l3.25,5.63a4.05,4.05,0,0,1-1.48,5.54A4.14,4.14,0,0,1,190.09,98.34Z"/><path class="cls-3" d="M383.74,433.76a4,4,0,0,1-3.51-2l-15.12-26.18a4.05,4.05,0,0,1,7-4.05l15.12,26.18a4.06,4.06,0,0,1-1.49,5.54A4,4,0,0,1,383.74,433.76Z"/><path class="cls-3" d="M396.84,456.45a4,4,0,0,1-3.51-2l-3.25-5.63a4,4,0,0,1,7-4.05l3.26,5.63a4.07,4.07,0,0,1-1.49,5.54A4.11,4.11,0,0,1,396.84,456.45Z"/><path class="cls-3" d="M158.83,197.79a4,4,0,0,1-2-.54l-26.18-15.12a4.05,4.05,0,1,1,4.05-7l26.18,15.12a4.05,4.05,0,0,1-2,7.56Z"/><path class="cls-3" d="M115.59,172.83a4,4,0,0,1-2-.55L107.94,169a4,4,0,0,1,4-7l5.63,3.25a4.05,4.05,0,0,1-2,7.56Z"/><path class="cls-3" d="M451,366.48a4,4,0,0,1-2-.54l-26.18-15.12a4,4,0,1,1,4.05-7L453,358.92a4.05,4.05,0,0,1-2,7.56Z"/><path class="cls-3" d="M473.7,379.58a4,4,0,0,1-2-.54l-5.63-3.25a4.05,4.05,0,1,1,4.05-7l5.63,3.25a4.05,4.05,0,0,1-2,7.56Z"/><path class="cls-3" d="M138.26,274.58H108a4.05,4.05,0,0,1,0-8.1h30.23a4.05,4.05,0,1,1,0,8.1Z"/><path class="cls-3" d="M88.33,274.58h-6.5a4.05,4.05,0,0,1,0-8.1h6.5a4.05,4.05,0,1,1,0,8.1Z"/><path class="cls-3" d="M475.64,274.58H445.41a4.05,4.05,0,0,1,0-8.1h30.23a4.05,4.05,0,1,1,0,8.1Z"/><path class="cls-3" d="M501.84,274.58h-6.5a4.05,4.05,0,1,1,0-8.1h6.5a4.05,4.05,0,1,1,0,8.1Z"/><path class="cls-3" d="M132.66,366.48a4,4,0,0,1-2-7.56l26.18-15.11a4,4,0,0,1,4.05,7l-26.18,15.12A4,4,0,0,1,132.66,366.48Z"/><path class="cls-3" d="M110,379.58a4.05,4.05,0,0,1-2-7.56l5.63-3.25a4.05,4.05,0,0,1,4.05,7L112,379A4,4,0,0,1,110,379.58Z"/><path class="cls-3" d="M424.84,197.79a4.05,4.05,0,0,1-2-7.56L449,175.11a4.05,4.05,0,0,1,4.05,7l-26.18,15.12A4,4,0,0,1,424.84,197.79Z"/><path class="cls-3" d="M468.08,172.83a4,4,0,0,1-2-7.56l5.63-3.25a4,4,0,1,1,4.05,7l-5.63,3.25A4,4,0,0,1,468.08,172.83Z"/><path d="M199.93,433.76a4,4,0,0,1-3.51-6.08l15.12-26.18a4,4,0,1,1,7,4.05l-15.11,26.18A4,4,0,0,1,199.93,433.76Z"/><path d="M186.83,456.45a4.05,4.05,0,0,1-3.51-6.08l3.25-5.63a4.05,4.05,0,0,1,7,4.05l-3.25,5.63A4,4,0,0,1,186.83,456.45Z"/><path d="M368.62,141.58a4,4,0,0,1-2-.55,4,4,0,0,1-1.49-5.53l15.12-26.18a4.05,4.05,0,0,1,7,4.05l-15.12,26.18A4,4,0,0,1,368.62,141.58Z"/><path d="M393.58,98.34a4.11,4.11,0,0,1-2-.54,4.05,4.05,0,0,1-1.48-5.54l3.25-5.63a4.05,4.05,0,0,1,7,4.05l-3.26,5.63A4,4,0,0,1,393.58,98.34Z"/><path class="cls-3" d="M199.93,433.76a4,4,0,0,1-3.51-6.08l15.12-26.18a4,4,0,1,1,7,4.05l-15.11,26.18A4,4,0,0,1,199.93,433.76Z"/><path class="cls-3" d="M186.83,456.45a4.05,4.05,0,0,1-3.51-6.08l3.25-5.63a4.05,4.05,0,0,1,7,4.05l-3.25,5.63A4,4,0,0,1,186.83,456.45Z"/><path class="cls-3" d="M368.62,141.58a4,4,0,0,1-2-.55,4,4,0,0,1-1.49-5.53l15.12-26.18a4.05,4.05,0,0,1,7,4.05l-15.12,26.18A4,4,0,0,1,368.62,141.58Z"/><path class="cls-3" d="M393.58,98.34a4.11,4.11,0,0,1-2-.54,4.05,4.05,0,0,1-1.48-5.54l3.25-5.63a4.05,4.05,0,0,1,7,4.05l-3.26,5.63A4,4,0,0,1,393.58,98.34Z"/><path class="cls-11" d="M331.58,126.24a4.27,4.27,0,0,1-1.05-.14,4.05,4.05,0,0,1-2.86-5l5.22-19.49a4.05,4.05,0,1,1,7.83,2.09l-5.22,19.5A4.07,4.07,0,0,1,331.58,126.24Z"/><path class="cls-11" d="M246.86,442.42a3.84,3.84,0,0,1-1.05-.14,4,4,0,0,1-2.86-5l5.22-19.5a4.05,4.05,0,0,1,7.83,2.1l-5.23,19.5A4,4,0,0,1,246.86,442.42Z"/><path class="cls-11" d="M252.08,126.24a4.06,4.06,0,0,1-3.91-3L243,103.73a4,4,0,1,1,7.82-2.09L256,121.13a4.05,4.05,0,0,1-2.87,5A4.21,4.21,0,0,1,252.08,126.24Z"/><path class="cls-11" d="M336.8,442.42a4.05,4.05,0,0,1-3.91-3l-5.22-19.5a4.05,4.05,0,0,1,7.83-2.1l5.22,19.5a4,4,0,0,1-2.87,5A3.79,3.79,0,0,1,336.8,442.42Z"/><path class="cls-11" d="M183.24,166a4,4,0,0,1-2.87-1.18L166.1,150.52a4.05,4.05,0,0,1,5.73-5.73l14.27,14.28a4,4,0,0,1-2.86,6.91Z"/><path class="cls-11" d="M414.7,397.45a4,4,0,0,1-2.86-1.19L397.56,382a4.05,4.05,0,0,1,5.73-5.73l14.28,14.27a4.06,4.06,0,0,1-2.87,6.92Z"/><path class="cls-11" d="M143.49,234.83a3.79,3.79,0,0,1-1.05-.14l-19.5-5.22a4.05,4.05,0,0,1,2.1-7.83l19.5,5.22a4.05,4.05,0,0,1-1,8Z"/><path class="cls-11" d="M459.68,319.55a3.79,3.79,0,0,1-1.05-.14l-19.5-5.22a4.05,4.05,0,1,1,2.1-7.83l19.49,5.23a4,4,0,0,1-1,8Z"/><path class="cls-11" d="M124,319.55a4,4,0,0,1-1-8l19.5-5.23a4.05,4.05,0,0,1,2.1,7.83L125,319.41A3.79,3.79,0,0,1,124,319.55Z"/><path class="cls-11" d="M440.17,234.83a4.05,4.05,0,0,1-1-8l19.5-5.22a4.05,4.05,0,0,1,2.09,7.83l-19.49,5.22A3.91,3.91,0,0,1,440.17,234.83Z"/><path class="cls-11" d="M169,397.45a4.06,4.06,0,0,1-2.87-6.92l14.27-14.27A4.05,4.05,0,1,1,186.1,382l-14.27,14.27A4,4,0,0,1,169,397.45Z"/><path class="cls-11" d="M400.43,166a4,4,0,0,1-2.87-6.91l14.28-14.28a4.05,4.05,0,0,1,5.73,5.73L403.29,164.8A4,4,0,0,1,400.43,166Z"/></g></g></svg>